HIERARCHY
ROOT Hips
{
	OFFSET 0.000000 0.000000 0.000000
	CHANNELS 6 Xposition Yposition Zposition Zrotation Xrotation Yrotation
	JOINT Spine
	{
		OFFSET 0.000000 0.100000 0.000000
		CHANNELS 3 Zrotation Xrotation Yrotation
		JOINT Chest
		{
			OFFSET 0.000000 0.250000 0.000000
			CHANNELS 3 Zrotation Xrotation Yrotation
			JOINT Neck
			{
				OFFSET 0.000000 0.100000 0.000000
				CHANNELS 3 Zrotation Xrotation Yrotation
				JOINT Head
				{
					OFFSET 0.000000 0.100000 0.000000
					CHANNELS 3 Zrotation Xrotation Yrotation
					End Site
					{
						OFFSET 0.0 0.0 0.0
					}
				}
			}
			JOINT LeftShoulder
			{
				OFFSET -0.200000 0.000000 0.000000
				CHANNELS 3 Zrotation Xrotation Yrotation
				JOINT LeftArm
				{
					OFFSET -0.150000 0.000000 0.000000
					CHANNELS 3 Zrotation Xrotation Yrotation
					JOINT LeftForeArm
					{
						OFFSET -0.250000 0.000000 0.000000
						CHANNELS 3 Zrotation Xrotation Yrotation
						JOINT LeftHand
						{
							OFFSET -0.100000 0.000000 0.000000
							CHANNELS 3 Zrotation Xrotation Yrotation
							End Site
							{
								OFFSET 0.0 0.0 0.0
							}
						}
					}
				}
			}
			JOINT RightShoulder
			{
				OFFSET 0.200000 0.000000 0.000000
				CHANNELS 3 Zrotation Xrotation Yrotation
				JOINT RightArm
				{
					OFFSET 0.150000 0.000000 0.000000
					CHANNELS 3 Zrotation Xrotation Yrotation
					JOINT RightForeArm
					{
						OFFSET 0.250000 0.000000 0.000000
						CHANNELS 3 Zrotation Xrotation Yrotation
						JOINT RightHand
						{
							OFFSET 0.100000 0.000000 0.000000
							CHANNELS 3 Zrotation Xrotation Yrotation
							End Site
							{
								OFFSET 0.0 0.0 0.0
							}
						}
					}
				}
			}
		}
	}
	JOINT LeftUpLeg
	{
		OFFSET -0.100000 -0.050000 0.000000
		CHANNELS 3 Zrotation Xrotation Yrotation
		JOINT LeftLeg
		{
			OFFSET 0.000000 -0.400000 0.000000
			CHANNELS 3 Zrotation Xrotation Yrotation
			JOINT LeftFoot
			{
				OFFSET 0.000000 -0.400000 0.000000
				CHANNELS 3 Zrotation Xrotation Yrotation
				JOINT LeftToeBase
				{
					OFFSET 0.000000 0.000000 0.100000
					CHANNELS 3 Zrotation Xrotation Yrotation
					End Site
					{
						OFFSET 0.0 0.0 0.0
					}
				}
			}
		}
	}
	JOINT RightUpLeg
	{
		OFFSET 0.100000 -0.050000 0.000000
		CHANNELS 3 Zrotation Xrotation Yrotation
		JOINT RightLeg
		{
			OFFSET 0.000000 -0.400000 0.000000
			CHANNELS 3 Zrotation Xrotation Yrotation
			JOINT RightFoot
			{
				OFFSET 0.000000 -0.400000 0.000000
				CHANNELS 3 Zrotation Xrotation Yrotation
				JOINT RightToeBase
				{
					OFFSET 0.000000 0.000000 0.100000
					CHANNELS 3 Zrotation Xrotation Yrotation
					End Site
					{
						OFFSET 0.0 0.0 0.0
					}
				}
			}
		}
	}
}
MOTION
Frames: 9
Frame Time: 0.033333
0.094098 -0.010566 0.002937 0.000000 0.000000 0.000000 0.000000 -43.734972 -1.164447 0.000000 61.788426 -69.866525 0.000000 -79.820372 32.551573 0.000000 0.000000 0.000000 48.035246 0.000000 -62.343078 -27.550389 0.000000 -102.798941 -55.786940 0.000000 -131.003671 0.000000 0.000000 0.000000 55.695385 0.000000 -121.099892 -23.832938 0.000000 -79.674536 -45.625654 0.000000 -38.049231 0.000000 0.000000 0.000000 14.716805 167.845591 0.000000 23.273139 -161.285992 0.000000 -21.334228 146.598653 0.000000 0.000000 0.000000 0.000000 -17.601556 -177.726715 0.000000 -8.830080 -151.025706 0.000000 -48.478079 123.443920 0.000000 0.000000 0.000000 0.000000
0.088049 0.010140 0.002945 0.000000 0.000000 0.000000 0.000000 -43.669220 -0.504987 0.000000 73.681262 -63.812300 0.000000 -79.780239 43.777148 0.000000 0.000000 0.000000 48.498513 0.000000 -68.526516 -34.083927 0.000000 -116.570594 -62.203516 0.000000 -135.057483 0.000000 0.000000 0.000000 56.554577 0.000000 -117.617131 -22.422560 0.000000 -78.385130 -45.696318 0.000000 -40.994897 0.000000 0.000000 0.000000 12.245434 167.522857 0.000000 26.948150 -165.959350 0.000000 -28.530040 135.718390 0.000000 0.000000 0.000000 0.000000 -18.935512 -171.149184 0.000000 -5.460389 -157.401206 0.000000 -54.385939 122.668678 0.000000 0.000000 0.000000 0.000000
0.080891 0.027047 0.002925 0.000000 0.000000 0.000000 0.000000 -41.637387 -0.816430 0.000000 83.077670 -56.376085 0.000000 -82.009662 55.362367 0.000000 0.000000 0.000000 49.079119 0.000000 -70.822163 -30.161147 0.000000 -130.934973 -63.675366 0.000000 -174.782013 0.000000 0.000000 0.000000 60.989957 0.000000 -112.244383 -32.663713 0.000000 -90.330112 -58.295849 0.000000 -55.772804 0.000000 0.000000 0.000000 13.332324 167.507976 0.000000 28.908998 -173.649059 0.000000 -33.487777 137.749200 0.000000 0.000000 0.000000 0.000000 -16.622479 -162.998608 0.000000 -5.336746 -155.908474 0.000000 -61.625535 139.965609 0.000000 0.000000 0.000000 0.000000
0.077356 0.034491 0.002903 0.000000 0.000000 0.000000 0.000000 -41.105714 -0.474769 0.000000 85.168647 -51.143600 0.000000 -78.570853 68.342070 0.000000 0.000000 0.000000 50.588813 0.000000 -70.445694 -26.770299 0.000000 -156.715559 -53.862925 0.000000 177.314450 0.000000 0.000000 0.000000 62.374004 0.000000 -110.951992 -32.758934 0.000000 -94.931503 -59.577588 0.000000 -59.200835 0.000000 0.000000 0.000000 12.780525 167.061925 0.000000 31.285191 -173.231373 0.000000 -35.664771 144.511234 0.000000 0.000000 0.000000 0.000000 -15.802097 -162.786321 0.000000 -5.141295 -155.874059 0.000000 -61.149603 145.561896 0.000000 0.000000 0.000000 0.000000
0.075010 0.037454 0.002883 0.000000 0.000000 0.000000 0.000000 -41.066026 0.245390 0.000000 85.417695 -47.674509 0.000000 -76.148992 71.989043 0.000000 0.000000 0.000000 52.780940 0.000000 -68.722664 -21.637157 0.000000 -169.974598 -46.074094 0.000000 -179.227662 0.000000 0.000000 0.000000 61.851456 0.000000 -114.708063 -25.001663 0.000000 -99.687546 -53.398843 0.000000 -57.664582 0.000000 0.000000 0.000000 11.699630 167.555170 0.000000 32.955725 -172.116566 0.000000 -33.954630 148.480369 0.000000 0.000000 0.000000 0.000000 -15.560579 -165.338376 0.000000 -4.892992 -155.197841 0.000000 -59.039400 138.952082 0.000000 0.000000 0.000000 0.000000
0.074341 0.035841 0.002703 0.000000 0.000000 0.000000 0.000000 -42.876829 2.922394 0.000000 84.811116 -52.614492 0.000000 -81.856639 61.273520 0.000000 0.000000 0.000000 52.095834 0.000000 -64.508852 -15.548418 0.000000 -168.049085 -38.639587 0.000000 -168.822729 0.000000 0.000000 0.000000 61.119106 0.000000 -121.984211 -14.342920 0.000000 -98.429520 -42.256619 0.000000 -56.075467 0.000000 0.000000 0.000000 11.370614 166.400371 0.000000 33.930550 -173.456877 0.000000 -31.311363 147.812390 0.000000 0.000000 0.000000 0.000000 -12.279309 -162.525990 0.000000 -6.355719 -157.092000 0.000000 -60.925739 133.613393 0.000000 0.000000 0.000000 0.000000
0.074673 0.033274 0.002025 0.000000 0.000000 0.000000 0.000000 -42.848002 6.654694 0.000000 85.146428 -57.226063 0.000000 -84.234612 56.404984 0.000000 0.000000 0.000000 48.964632 0.000000 -59.398616 2.401420 0.000000 -167.294763 -29.989060 0.000000 -166.674930 0.000000 0.000000 0.000000 58.969014 0.000000 -123.935870 -12.615265 0.000000 -90.343084 -42.915006 0.000000 -50.359912 0.000000 0.000000 0.000000 11.725665 166.407959 0.000000 30.594185 -172.819093 0.000000 -25.847657 142.720295 0.000000 0.000000 0.000000 0.000000 -12.442024 -163.016320 0.000000 -6.610415 -159.168554 0.000000 -59.587962 131.698006 0.000000 0.000000 0.000000 0.000000
0.076357 0.032707 0.001098 0.000000 0.000000 0.000000 0.000000 -42.904914 8.940888 0.000000 86.049370 -59.984005 0.000000 -85.358090 54.381630 0.000000 0.000000 0.000000 53.247251 0.000000 -44.833675 12.500598 0.000000 -157.019023 -28.371812 0.000000 -156.682097 0.000000 0.000000 0.000000 58.926440 0.000000 -125.540927 -15.564035 0.000000 -85.383178 -43.151700 0.000000 -49.165096 0.000000 0.000000 0.000000 14.462472 166.818582 0.000000 26.727683 -169.601426 0.000000 -24.052404 136.149532 0.000000 0.000000 0.000000 0.000000 -13.002823 -170.553644 0.000000 -6.244618 -155.878120 0.000000 -56.683867 128.154074 0.000000 0.000000 0.000000 0.000000
0.076457 0.031352 0.000777 0.000000 0.000000 0.000000 0.000000 -43.460229 8.974025 0.000000 85.976794 -62.425830 0.000000 -86.054476 51.101751 0.000000 0.000000 0.000000 51.304771 0.000000 -42.790593 10.808387 0.000000 -153.593265 -27.346536 0.000000 -151.774197 0.000000 0.000000 0.000000 60.267601 0.000000 -127.797829 -14.722329 0.000000 -82.740113 -43.178039 0.000000 -47.315089 0.000000 0.000000 0.000000 14.576701 166.864941 0.000000 26.673232 -169.782354 0.000000 -20.844821 137.675328 0.000000 0.000000 0.000000 0.000000 -12.630047 -169.380718 0.000000 -6.169041 -155.203413 0.000000 -56.909651 127.150067 0.000000 0.000000 0.000000 0.000000
